<svg width="114" height="84" viewBox="0 0 114 84" fill="none" xmlns="http://www.w3.org/2000/svg">
<path fill-rule="evenodd" clip-rule="evenodd" d="M51.7596 32.9604C51.9181 31.6655 52 30.3434 52 29C52 12.9837 40.3594 0 26 0C11.6406 0 0 12.9837 0 29C0 45.0163 11.6406 58 26 58C26.7497 58 27.492 57.9646 28.2256 57.8952C25.5489 66.2741 21.6307 73.9106 20.0462 76.6272C17.393 81.1761 17.8386 84.846 23.0877 82.3491C29.2507 80.0913 51.1987 51.8289 51.7596 32.9604Z" fill="url(#paint0_linear_0_803)" fill-opacity="0.6"/>
<path fill-rule="evenodd" clip-rule="evenodd" d="M113.76 32.9604C113.918 31.6655 114 30.3434 114 29C114 12.9837 102.359 0 88 0C73.6406 0 62 12.9837 62 29C62 45.0163 73.6406 58 88 58C88.7497 58 89.492 57.9646 90.2256 57.8952C87.5489 66.2741 83.6307 73.9106 82.0462 76.6272C79.393 81.1761 79.8386 84.846 85.0877 82.3491C91.2507 80.0913 113.199 51.8289 113.76 32.9604Z" fill="url(#paint1_linear_0_803)" fill-opacity="0.6"/>
<defs>
<linearGradient id="paint0_linear_0_803" x1="52" y1="-1.73721e-06" x2="-22.7167" y2="35.9663" gradientUnits="userSpaceOnUse">
<stop stop-color="#1A6835"/>
<stop offset="1" stop-color="#083614"/>
</linearGradient>
<linearGradient id="paint1_linear_0_803" x1="114" y1="-1.73721e-06" x2="39.2833" y2="35.9663" gradientUnits="userSpaceOnUse">
<stop stop-color="#1A6835"/>
<stop offset="1" stop-color="#083614"/>
</linearGradient>
</defs>
</svg>
