<svg width="165" height="42" viewBox="0 0 165 42" fill="none" xmlns="http://www.w3.org/2000/svg">
<path d="M33.1915 33.3405C33.1915 29.843 30.306 26.9575 26.8085 26.9575C23.311 26.9575 20.4255 29.843 20.4255 33.3405C20.4255 36.838 23.311 39.7235 26.8085 39.7235C30.306 39.7235 33.1915 36.838 33.1915 33.3405Z" fill="white"/>
<path d="M26.0185 21.8511C26.0185 21.8511 18.8566 21.8511 9.88159 21.8511C5.80204 21.8511 0 21.7575 0 28.7818V35.3378C0 41.5191 5.80204 41.4255 9.79094 41.4255H11.6947H18.766V32.6217C18.766 27.4706 22.6642 25.0355 26.6531 25.0355C31.4579 25.0355 34.5402 28.2198 34.5402 32.7154V41.4255H41.7021V28.7818C41.7021 21.7575 36.0814 21.8511 32.0019 21.8511C31.9112 21.8511 28.1943 21.8511 28.1036 21.8511H26.0185Z" fill="white"/>
<path d="M15.7743 20.1486C15.7743 20.1486 22.9362 20.1486 31.9112 20.1486C35.9001 20.1486 41.7021 20.2418 41.7021 13.1578V6.63302C41.7021 0.481089 35.9001 0.574299 31.9112 0.574299H30.0074H22.9362V9.24293C22.9362 14.3695 19.0379 16.793 15.049 16.793C10.2442 16.793 7.16189 13.6238 7.16189 9.14972V0.66751H0V13.251C0 20.2418 5.62072 20.1486 9.70028 20.1486C9.79093 20.1486 13.5079 20.1486 13.5985 20.1486H15.7743Z" fill="white"/>
<path d="M8.51062 8.65983C8.51062 12.1574 11.3961 15.0428 14.8936 15.0428C18.3911 15.0428 21.2766 12.1574 21.2766 8.65983C21.2766 5.16231 18.3911 2.27686 14.8936 2.27686C11.3961 2.27686 8.51062 5.16231 8.51062 8.65983Z" fill="white"/>
<path d="M62.0001 37.2953V39.1164V40.9375H165V37.2953H62.0001Z" fill="white"/>
<path d="M139.713 2L134.412 33.6531H157.878L158.773 28.321H141.696L143.139 19.7017H159.028L159.923 14.3696H144.027L145.207 7.35526H162.284L163.179 2H139.713Z" fill="white"/>
<path d="M135.407 10.6425C135.053 8.62077 134.335 6.91542 133.239 5.51873C132.151 4.12204 130.716 3.14976 128.956 2.60189C127.645 2.20063 125.669 2 123.03 2H111.347L108.515 18.9069L112.706 28.321H110.568L104.719 15.1952L98.8544 2H92.6349L87.3413 33.6531H93.2753L96.7323 13.0115L106.038 33.6531H118.084C120.445 33.6531 122.367 33.4294 123.848 32.9818C125.839 32.3799 127.475 31.5311 128.764 30.4585C130.469 29.0309 131.912 27.1635 133.085 24.864C134.049 22.9812 134.752 20.7357 135.184 18.1275C135.678 15.1644 135.755 12.6719 135.4 10.6425M127.004 23.6371C126.333 25.0569 125.608 26.0755 124.82 26.6928C124.033 27.3102 123.1 27.75 122.019 28.0124C121.194 28.2053 119.89 28.3133 118.099 28.3133H113.331L116.842 7.34754H119.712C122.313 7.34754 124.049 7.44786 124.905 7.64849C126.055 7.91085 126.958 8.40471 127.614 9.13777C128.27 9.87084 128.702 10.8971 128.91 12.2012C129.126 13.513 129.026 15.3881 128.617 17.8343C128.208 20.2804 127.668 22.2173 126.996 23.6294" fill="white"/>
<path d="M63.8213 33.6531L69.1148 2H90.8136L89.9185 7.35526H74.609L73.3589 14.848H86.5696L85.6745 20.2033H72.4638L70.2106 33.6531H63.8213Z" fill="white"/>
</svg>
