<svg width="72" height="77" viewBox="0 0 72 77" fill="none" xmlns="http://www.w3.org/2000/svg">
<path fill-rule="evenodd" clip-rule="evenodd" d="M46.6741 74.1806C45.7892 74.2664 44.9602 73.6225 44.8225 72.7424L43.2917 62.9564C43.154 62.0763 43.7598 61.2933 44.6447 61.2075C45.5296 61.1217 46.3585 61.7656 46.4962 62.6457L48.0271 72.4317C48.1647 73.3118 47.559 74.0948 46.6741 74.1806Z" fill="#F1F1F1" fill-opacity="0.5"/>
<path fill-rule="evenodd" clip-rule="evenodd" d="M8.77466 18.3299C9.23554 17.5697 10.2475 17.291 11.035 17.7074L19.7909 22.3381C20.5784 22.7546 20.8431 23.7085 20.3822 24.4688C19.9214 25.229 18.9094 25.5077 18.1219 25.0913L9.366 20.4606C8.57853 20.0441 8.31378 19.0902 8.77466 18.3299Z" fill="#F1F1F1" fill-opacity="0.5"/>
<path fill-rule="evenodd" clip-rule="evenodd" d="M30.4576 70.9889C29.6217 70.6467 29.2426 69.7126 29.6108 68.9024L33.0158 61.4107C33.384 60.6006 34.3601 60.2212 35.1959 60.5634C36.0318 60.9055 36.4109 61.8397 36.0427 62.6499L32.6377 70.1415C32.2695 70.9517 31.2934 71.3311 30.4576 70.9889Z" fill="#F1F1F1" fill-opacity="0.5"/>
<path fill-rule="evenodd" clip-rule="evenodd" d="M14.7371 7.73436C15.4402 7.16745 16.4413 7.2863 16.9731 7.99982L21.8911 14.5977C22.4229 15.3112 22.2841 16.3492 21.581 16.9161C20.8779 17.483 19.8768 17.3642 19.3449 16.6507L14.427 10.0528C13.8951 9.33926 14.034 8.30127 14.7371 7.73436Z" fill="#F1F1F1" fill-opacity="0.5"/>
<path fill-rule="evenodd" clip-rule="evenodd" d="M52.1233 57.0678C52.7951 56.5378 53.7571 56.6588 54.272 57.3379L59.3996 64.1008C59.9144 64.7799 59.7872 65.76 59.1154 66.29C58.4436 66.8199 57.4816 66.699 56.9668 66.0199L51.8392 59.257C51.3243 58.5779 51.4515 57.5977 52.1233 57.0678Z" fill="#F1F1F1" fill-opacity="0.5"/>
<path fill-rule="evenodd" clip-rule="evenodd" d="M19.0562 33.9493C19.1079 34.8034 18.4596 35.5243 17.6081 35.5595L9.12832 35.9099C8.27682 35.9451 7.54461 35.2813 7.49288 34.4272C7.44115 33.5731 8.0895 32.8522 8.94099 32.817L17.4207 32.4665C18.2722 32.4314 19.0045 33.0952 19.0562 33.9493Z" fill="#F1F1F1" fill-opacity="0.5"/>
<path fill-rule="evenodd" clip-rule="evenodd" d="M61.9196 27.4259C61.9827 27.3358 62.0459 27.2454 62.1092 27.1548C62.6005 26.4518 62.5764 25.5137 62.0583 24.8301L58.196 19.7336L54.4635 14.8084C53.9293 14.1036 52.9914 13.8274 52.1833 14.1868C51.4363 14.519 50.7604 14.8587 50.1092 15.186C47.6462 16.4239 45.5377 17.4836 41.2814 17.282L41.3744 17.4047C36.3215 16.4873 30.9151 17.6092 26.4996 20.9555C18.1364 27.2934 16.4947 39.211 22.8326 47.5742C29.1705 55.9373 41.0881 57.5791 49.4513 51.2411C53.8668 47.8948 56.4087 42.9932 56.8918 37.8805L56.9852 38.0037C57.9657 33.0774 59.8632 30.3652 61.9196 27.4259Z" fill="#F1F1F1"/>
<path fill-rule="evenodd" clip-rule="evenodd" d="M68.2434 11.8531C65.9083 8.77194 62.2313 7.62625 60.0305 9.29413C59.9377 9.3644 59.8491 9.43855 59.7646 9.51634C59.1584 9.31236 58.4651 9.4021 57.917 9.81753L57.12 10.4215C56.2396 11.0887 56.0668 12.3432 56.734 13.2235L63.9819 22.7874C64.649 23.6677 65.9035 23.8405 66.7839 23.1734L67.5808 22.5694C68.2176 22.0868 68.4842 21.297 68.3305 20.5638C68.3832 20.528 68.4352 20.4908 68.4864 20.452C70.6872 18.7841 70.5784 14.9343 68.2434 11.8531Z" fill="#F1F1F1"/>
</svg>
