<svg width="129" height="49" viewBox="0 0 129 49" fill="none" xmlns="http://www.w3.org/2000/svg">
<path d="M88.7347 31.5265C89.4843 31.8694 89.8575 32.3001 89.8575 32.8187C89.8639 32.9284 89.8512 33.0354 89.8193 33.1424C89.596 33.8338 89.0951 34.1768 88.3168 34.1768C88.1285 34.1713 87.9403 34.1466 87.7553 34.1109C86.9514 33.9765 86.1348 33.9024 85.3149 33.8859C83.5158 33.8859 82.0643 34.2399 80.9605 34.9505C79.8887 35.6117 79.2698 36.6899 79.3081 37.823V47.25C79.34 47.6862 79.1741 48.1142 78.8392 48.4434C78.5266 48.7233 78.0576 48.8659 77.4324 48.8659C76.9252 48.8934 76.4243 48.748 76.0415 48.4626C75.7193 48.1938 75.5534 47.7904 75.5534 47.25V32.8187C75.4514 32.0148 76.1245 31.2932 77.0591 31.2055C77.1836 31.1945 77.308 31.1945 77.4324 31.2055C78.6829 31.2055 79.3081 31.7432 79.3081 32.8187V33.4305C80.0737 32.6705 81.0243 32.0642 82.093 31.6554C83.1999 31.2219 84.4058 31.0024 85.6212 31.0079C86.945 31.0079 87.9818 31.1808 88.7315 31.5265H88.7347Z" fill="#3F4040"/>
<path d="M104.223 46.0864C104.545 46.4074 104.711 46.8217 104.692 47.247C104.705 47.6942 104.475 48.1222 104.073 48.4075C103.623 48.7203 103.055 48.8794 102.478 48.8602H101.805C100.612 48.8712 99.441 48.5858 98.4329 48.0371C97.4185 47.4857 96.5955 46.712 96.05 45.7929C95.463 44.8024 95.1663 43.7077 95.1887 42.5966V34.6265H93.4629C92.9939 34.6457 92.5378 34.5057 92.1869 34.2396C91.8679 33.9927 91.6892 33.6415 91.6988 33.2739C91.6796 32.8843 91.8583 32.5057 92.1869 32.2395C92.5378 31.9734 92.9939 31.8362 93.4629 31.8527H95.1887V27.2023C95.1536 26.3106 95.9638 25.5616 97.0006 25.5315C98.0374 25.5013 98.9082 26.1982 98.9433 27.0898C98.9433 27.1282 98.9433 27.1639 98.9433 27.2023V31.8527H102.133C102.602 31.8362 103.058 31.9734 103.409 32.2395C103.738 32.5084 103.917 32.8843 103.897 33.2739C103.904 33.6415 103.728 33.9927 103.409 34.2396C103.058 34.5057 102.599 34.6457 102.133 34.6265H98.9433V42.6021C98.9114 43.384 99.2049 44.1495 99.7696 44.764C100.245 45.3127 100.995 45.6365 101.792 45.6365H103.081C103.524 45.631 103.945 45.7983 104.229 46.0919L104.223 46.0864Z" fill="#3F4040"/>
<path d="M72.7912 7.62685C72.4754 7.62685 72.217 7.40737 72.217 7.13301C72.217 6.85865 72.4722 6.63916 72.7912 6.63916C73.1102 6.63916 73.3654 6.85865 73.3654 7.13301C73.3654 7.40462 73.1102 7.62685 72.7912 7.62685Z" fill="#374D42"/>
<path d="M66.9055 2.95728C67.3808 2.95728 67.7668 3.28925 67.7668 3.69804C67.7668 4.10684 67.3808 4.44156 66.9055 4.44156C66.4302 4.44156 66.0442 4.10958 66.0442 3.69804C66.0442 3.28651 66.4302 2.95728 66.9055 2.95728Z" fill="#325342"/>
<path d="M59.8428 4.09034C59.1985 4.09034 58.6753 3.64039 58.6753 3.08618C58.6753 2.53198 59.1985 2.08203 59.8428 2.08203C60.4872 2.08203 61.0104 2.53198 61.0104 3.08618C61.0104 3.64039 60.4872 4.09034 59.8428 4.09034Z" fill="#2C5943"/>
<path d="M52.9811 6.03852C52.174 6.03852 51.52 5.47608 51.52 4.78195C51.52 4.08783 52.174 3.52539 52.9811 3.52539C53.7881 3.52539 54.4421 4.08783 54.4421 4.78195C54.4421 5.47334 53.7913 6.03577 52.9874 6.03852H52.9842H52.9811Z" fill="#2C5943"/>
<path d="M47.2517 9.94791C46.2755 9.94791 45.4812 9.2675 45.4812 8.42796C45.4812 7.58843 46.2691 6.90527 47.2485 6.90527C48.2246 6.90527 49.0189 7.58294 49.0189 8.42522C49.0189 9.2675 48.2278 9.94791 47.2517 9.94791Z" fill="#285E43"/>
<path d="M48.2824 22.6316C49.7338 22.6316 50.9078 23.644 50.9078 24.8896C50.9078 26.1352 49.7307 27.1475 48.2824 27.1475C46.8341 27.1475 45.657 26.1352 45.657 24.8896C45.657 23.644 46.8341 22.6316 48.2824 22.6316Z" fill="#1C6B44"/>
<path d="M54.8631 24.7087C56.4422 24.7087 57.7214 25.8089 57.7214 27.167C57.7214 28.5251 56.4422 29.6253 54.8631 29.6253C53.2841 29.6253 52.0049 28.5251 52.0049 27.167C52.0049 25.8089 53.2841 24.7087 54.8631 24.7087Z" fill="#197245"/>
<path d="M59.7885 24.8047C60.972 23.7868 62.8924 23.7868 64.0791 24.8047C65.2626 25.8225 65.2626 27.4742 64.0791 28.4948C62.8956 29.5127 60.9752 29.5127 59.7885 28.4948C58.605 27.4769 58.605 25.8253 59.7885 24.8047Z" fill="#058346"/>
<path d="M65.0776 23.186C65.3806 21.7099 67.0171 20.7222 68.7333 20.9829C70.4496 21.2435 71.598 22.651 71.2949 24.127C70.9919 25.6031 69.3554 26.5908 67.6392 26.3301C65.9229 26.0695 64.7745 24.662 65.0776 23.186Z" fill="#098A45"/>
<path d="M71.0652 18.7958C71.5278 17.3087 73.3078 16.4253 75.0368 16.8231C76.7658 17.2209 77.793 18.7519 77.3304 20.2389C76.8679 21.7259 75.0878 22.6094 73.3588 22.2115C71.6298 21.8137 70.6027 20.2828 71.0652 18.7958Z" fill="#008F47"/>
<path d="M76.1468 13.1059C77.4196 12.0112 79.4803 12.0112 80.75 13.1059C82.0228 14.2006 82.0228 15.973 80.75 17.0649C79.4771 18.1596 77.4164 18.1596 76.1468 17.0649C74.8739 15.9702 74.8739 14.1979 76.1468 13.1059Z" fill="#008F47"/>
<path d="M81.0148 8.58194C82.2781 7.49547 84.3261 7.49547 85.5925 8.58194C86.8558 9.6684 86.8558 11.4298 85.5925 12.519C84.3293 13.6054 82.2813 13.6054 81.0148 12.519C79.7516 11.4325 79.7516 9.67114 81.0148 8.58194Z" fill="#098A45"/>
<path d="M85.8191 5.51467C86.4953 4.11269 88.3647 3.446 89.998 4.02764C91.6281 4.60928 92.4033 6.21702 91.727 7.62174C91.0507 9.02372 89.1813 9.69041 87.5481 9.10877C85.918 8.52713 85.1428 6.91938 85.8191 5.51467Z" fill="#058346"/>
<path d="M95.0477 0.940674C96.7703 0.940674 98.1676 2.14237 98.1676 3.6239C98.1676 5.10544 96.7703 6.30713 95.0477 6.30713C93.3251 6.30713 91.9279 5.10544 91.9279 3.6239C91.9279 2.14237 93.3251 0.940674 95.0477 0.940674Z" fill="#0E7E45"/>
<path d="M99.4279 1.99704C99.9223 1.14652 100.889 0.630729 101.919 0.567627H102.344C102.726 0.589576 103.112 0.677371 103.479 0.836499C104.969 1.4785 105.575 3.03686 104.829 4.31811C104.082 5.59937 102.27 6.12065 100.78 5.47865C99.2907 4.83665 98.6846 3.27829 99.4311 1.99704H99.4279Z" fill="#197245"/>
<path d="M108.685 2.97363C110.28 2.97363 111.572 4.08479 111.572 5.45658C111.572 6.82837 110.28 7.93953 108.685 7.93953C107.09 7.93953 105.798 6.82837 105.798 5.45658C105.798 4.08479 107.09 2.97363 108.685 2.97363Z" fill="#1C6B44"/>
<path d="M110.532 9.01512C111.458 7.99451 113.171 7.81343 114.357 8.60907C115.544 9.40471 115.754 10.878 114.829 11.8986C113.904 12.9193 112.191 13.1003 111.005 12.3047C109.818 11.509 109.607 10.0357 110.532 9.01512Z" fill="#1C6B44"/>
<path d="M112.963 14.3872C114.357 14.3872 115.486 15.3584 115.486 16.5574C115.486 17.7563 114.357 18.7276 112.963 18.7276C111.569 18.7276 110.44 17.7563 110.44 16.5574C110.44 15.3584 111.569 14.3872 112.963 14.3872Z" fill="#216544"/>
<path d="M107.984 20.5381C108.877 19.7699 110.322 19.7699 111.215 20.5381C112.108 21.3063 112.108 22.5491 111.215 23.3173C110.322 24.0855 108.877 24.0855 107.984 23.3173C107.09 22.5491 107.09 21.3063 107.984 20.5381Z" fill="#285E43"/>
<path d="M101.989 24.8894C102.413 24.0059 103.591 23.5889 104.618 23.9538C105.645 24.3187 106.13 25.3311 105.706 26.2145C105.281 27.098 104.104 27.515 103.077 27.1501C102.05 26.7852 101.565 25.7728 101.989 24.8894Z" fill="#2C5943"/>
<path d="M89.928 27.6851C89.2198 27.6851 88.6456 27.1912 88.6456 26.5822C88.6456 25.9731 89.2198 25.4792 89.928 25.4792C90.6362 25.4792 91.2104 25.9731 91.2104 26.5822C91.2104 27.1912 90.6394 27.6851 89.9312 27.6851H89.928Z" fill="#325342"/>
<path d="M84.0708 23.7644C83.6402 23.7644 83.2925 23.4654 83.2925 23.095C83.2925 22.7246 83.6402 22.4255 84.0708 22.4255C84.5015 22.4255 84.8492 22.7246 84.8492 23.095C84.8492 23.4654 84.5015 23.7644 84.0708 23.7644Z" fill="#374D42"/>
<path d="M27.5178 18.4419C27.5178 19.6984 28.8672 20.3843 30.4622 20.3843H38.0226V18.8369H32.0221C31.751 18.8369 31.349 18.7738 31.349 18.3596V16.5323H37.0751V15.3965H31.349V13.1906H37.2857C37.9875 13.1111 38.0258 12.7928 38.0258 12.0301V11.8079H27.5242V18.4556V18.4391L27.5178 18.4419Z" fill="#1E1E1C"/>
<path d="M21.9167 11.7913H14.2766V20.3814H21.9167C24.8739 20.3814 26.1627 19.6791 26.2169 17.2894V15.0369C26.1722 12.672 24.8866 11.7995 21.9167 11.7995V11.7913ZM22.6951 17.6488C22.6951 18.8423 22.0794 18.8423 20.6599 18.8423H17.7378V13.1905H20.6599C22.1241 13.1905 22.7015 13.2207 22.7015 14.4882V17.6571L22.6951 17.6488Z" fill="#1E1E1C"/>
<path d="M8.82804 12.9682V18.7847H6.03039C4.77033 18.7847 3.96325 18.428 3.96325 17.1632V11.7803H1.66324C0.540347 11.7803 0.479736 12.0629 0.479736 12.971V17.1659C0.479736 19.7367 1.66962 20.4034 4.41623 20.4034H12.4902V11.783H10.0179C8.88227 11.783 8.83761 12.0656 8.83442 12.9737H8.82804V12.9682Z" fill="#1E1E1C"/>
<path d="M56.2093 18.8428C54.8281 18.8428 54.6558 18.1844 54.6367 17.172V14.8015C54.6367 13.7782 54.8759 13.1252 56.2636 13.1252H61.2783C61.76 12.977 61.7377 12.5929 61.7377 11.7891H54.5059C51.6891 11.7891 50.7544 13.1883 50.7544 15.4161V16.7687C50.7703 18.9882 51.6667 20.3738 54.4676 20.3738H60.6403C61.6866 20.3738 61.8078 20.1351 61.8238 19.3778V18.8319H56.2093V18.8428Z" fill="#1E1E1C"/>
<path d="M46.3843 15.1006H43.5069C42.7732 15.1006 42.4606 14.7137 42.4606 14.154C42.4606 13.5944 42.7732 13.1883 43.5069 13.1883H48.8055C49.3159 13.1279 49.4786 12.9386 49.5169 12.5353V11.8H42.9997C40.5178 11.8 38.9292 12.4283 38.9292 14.3132C38.9292 16.0938 39.9213 16.7714 42.25 16.7714H45.3475C46.0366 16.7714 46.3396 17.1967 46.3396 17.7152C46.3396 18.2777 46.0302 18.8428 44.9903 18.8428H39.1047C39.1047 20.1954 39.7937 20.3902 40.4764 20.3902H46.2184C48.7035 20.3902 49.8646 19.729 49.8646 17.7235C49.8646 15.7179 48.8917 15.1061 46.3715 15.1061H46.3747L46.3843 15.1006Z" fill="#1E1E1C"/>
<path d="M19.3134 35.4794C17.4855 32.7166 14.0563 31.0266 10.359 31.0732C8.5088 31.054 6.69049 31.4628 5.0859 32.2529C3.52279 33.0157 2.23083 34.1323 1.35038 35.4794C0.441219 36.8759 -0.0245251 38.4507 0.000995135 40.0502C0.000995135 40.0996 0.000995135 40.149 0.000995135 40.1984C0.000995135 41.7348 0.434839 43.252 1.25787 44.6183C2.04899 45.938 3.24206 47.0491 4.71267 47.831C6.18646 48.6075 7.88356 49.008 9.61255 48.9916C10.3526 48.9916 11.0927 48.923 11.8137 48.7776C12.5442 48.6294 13.0642 48.0697 13.0674 47.425C13.0737 46.6595 12.356 46.0367 11.466 46.034C11.399 46.034 11.3352 46.0367 11.2682 46.045C10.9715 46.0779 10.6685 46.0916 10.3686 46.0944C9.17233 46.1081 7.9984 45.8337 6.9744 45.3042C5.96316 44.7802 5.13375 44.0312 4.56912 43.1395C3.96939 42.1957 3.66315 41.1339 3.6791 40.0585C3.66315 38.9802 3.9662 37.9157 4.55955 36.9664C5.1178 36.0693 5.9504 35.3148 6.96483 34.788C10.0496 33.1748 14.069 34.0171 15.948 36.6701C16.0181 36.7662 16.0819 36.8649 16.1425 36.9664C16.7263 37.9185 17.0262 38.9802 17.0134 40.0585C17.0134 40.4865 16.8922 47.5402 16.8922 47.5402C17.023 48.3414 17.8364 48.9312 18.7775 48.9038C19.8047 48.9285 20.6628 48.2344 20.6947 47.3482C20.6947 47.318 20.6947 47.2878 20.6947 47.2549V40.0557C20.717 38.4535 20.2385 36.8759 19.3166 35.4822L19.3134 35.4794Z" fill="#3F4040"/>
<path d="M127.621 35.4794C125.793 32.7166 122.364 31.0266 118.667 31.0732C116.817 31.054 114.998 31.4628 113.394 32.2529C111.831 33.0157 110.539 34.1323 109.658 35.4794C108.749 36.8732 108.283 38.4507 108.309 40.0475C108.283 41.636 108.714 43.2054 109.566 44.6156C110.357 45.9352 111.55 47.0464 113.02 47.8283C114.494 48.6047 116.191 49.0053 117.92 48.9888C118.66 48.9888 119.401 48.9203 120.121 48.7748C120.852 48.6267 121.372 48.067 121.375 47.4222C121.382 46.6568 120.664 46.034 119.774 46.0313C119.707 46.0313 119.643 46.034 119.576 46.0422C119.279 46.0751 118.976 46.0889 118.676 46.0916C117.48 46.1053 116.306 45.831 115.282 45.3015C114.271 44.7774 113.442 44.0284 112.877 43.1368C112.277 42.193 111.971 41.1312 111.987 40.0557C111.971 38.9775 112.274 37.913 112.867 36.9637C113.426 36.0665 114.258 35.3121 115.273 34.7853C118.357 33.1721 122.377 34.0143 124.253 36.6674C124.32 36.7634 124.387 36.8622 124.447 36.9637C125.031 37.9157 125.331 38.9775 125.318 40.0557C125.318 40.4837 125.197 47.5375 125.197 47.5375C125.328 48.3386 126.141 48.9285 127.082 48.901C128.109 48.9257 128.967 48.2316 128.999 47.3454C128.999 47.329 128.999 47.3153 128.999 47.2988C128.999 47.2823 128.999 47.2686 128.999 47.2521V40.053C129.022 38.4507 128.543 36.8732 127.621 35.4794Z" fill="#3F4040"/>
<path d="M44.9036 35.4468C44.1125 34.1271 42.9194 33.016 41.4488 32.2341C39.975 31.4576 38.2779 31.0571 36.5489 31.0735C35.879 31.0735 35.2091 31.1311 34.552 31.2491C33.8023 31.389 33.2696 31.9597 33.2696 32.6182C33.276 33.3946 34.0129 34.0201 34.9156 34.0174C34.9731 34.0174 35.0273 34.0147 35.0847 34.0092C35.3208 33.9872 35.56 33.979 35.7961 33.979C36.9923 33.9653 38.1663 34.2396 39.1903 34.7719C40.2015 35.2959 41.0309 36.0422 41.5956 36.9338C42.1921 37.8804 42.4951 38.9421 42.476 40.0176C42.4919 41.0959 42.1889 42.1604 41.5956 43.1097C41.0373 44.0096 40.2047 44.7613 39.1903 45.2908C36.1087 46.904 32.0861 46.0618 30.2103 43.4115C30.1402 43.3127 30.0764 43.2139 30.0126 43.1124C29.4288 42.1604 29.1321 41.0959 29.1512 40.0204C29.1512 39.3564 29.298 25.301 29.298 25.301C29.2788 24.3737 28.392 23.6357 27.3138 23.6521C26.8289 23.6604 26.3664 23.8195 26.0155 24.1048C25.6454 24.4203 25.4476 24.8538 25.4731 25.301V40.0204C25.4508 41.6199 25.9229 43.1975 26.8417 44.5884C28.6664 47.354 32.0988 49.044 35.7961 48.9947C37.6431 49.0111 39.4646 48.6051 41.0692 47.8177C42.6323 47.0522 43.9243 45.9356 44.8047 44.5884C45.7139 43.1947 46.1764 41.6171 46.1541 40.0204C46.1796 38.4318 45.749 36.8625 44.9004 35.4496L44.9036 35.4468Z" fill="#3F4040"/>
<path d="M68.6791 41.1807C69.1385 41.1945 69.5851 41.049 69.92 40.7774C70.2422 40.514 70.4209 40.1437 70.4081 39.7596C70.4432 38.1985 70.0604 36.6511 69.2852 35.2381C68.577 33.9678 67.4573 32.9033 66.0569 32.1708C64.6533 31.4383 62.9913 31.0706 61.0645 31.0734C59.2302 31.0487 57.4247 31.4437 55.8297 32.2202C54.3048 32.9747 53.0607 34.0831 52.2345 35.4165C51.354 36.8431 50.9074 38.4399 50.9393 40.0559C50.9074 41.6718 51.3796 43.2659 52.3079 44.6733C53.2106 46.0177 54.5345 47.1206 56.1295 47.8531C57.8011 48.6159 59.6513 49.0027 61.5047 49C62.7744 49 64.0472 48.8161 65.269 48.4512C66.4142 48.1385 67.486 47.6583 68.4398 47.0301C68.8163 46.8161 69.0428 46.4512 69.0428 46.0643C69.0268 45.6281 68.778 45.2248 68.3697 44.9669C68.057 44.7419 67.6551 44.6267 67.2468 44.6431C66.797 44.6349 66.3599 44.7611 66.0058 44.9998C65.3966 45.3812 64.7171 45.6747 63.9993 45.8723C63.2465 46.1 62.4522 46.2207 61.6547 46.2289C60.0692 46.2646 58.5093 45.8613 57.2077 45.0821L57.1886 45.0657C57.061 44.9861 56.9302 44.9065 56.8058 44.8187C52.2632 41.5347 54.5122 36.3164 56.6176 35.1339C57.8904 34.4233 59.2398 33.8416 61.0677 33.8416C62.7169 33.8416 64.0536 34.2724 65.0839 35.1339C66.1143 35.9954 66.7396 37.1477 66.9597 38.588H58.79C57.9702 38.588 57.3066 39.1587 57.3035 39.8611V39.8885C57.3035 40.5964 57.9638 41.1698 58.7868 41.1725L68.6823 41.1835L68.6791 41.1807Z" fill="#3F4040"/>
</svg>
